<svg width="16" height="16" viewBox="0 0 16 16" fill="none" xmlns="http://www.w3.org/2000/svg">
<g clip-path="url(#clip0_106_31)">
<path d="M7.87817 5.46598L10.1686 7.75637L10.1795 7.6364C10.1795 6.43303 9.20152 5.45508 7.99815 5.45508L7.87817 5.46598Z" fill="#7A7A7A"/>
<path d="M7.99831 4.00086C10.0051 4.00086 11.6339 5.6296 11.6339 7.63641C11.6339 8.1054 11.5393 8.55257 11.3757 8.96337L13.5025 11.0902C14.6005 10.174 15.4657 8.98883 16.0002 7.63641C14.7386 4.44442 11.6375 2.18311 7.99834 2.18311C6.98038 2.18311 6.00608 2.36487 5.10083 2.69207L6.67138 4.25897C7.08215 4.09902 7.52932 4.00086 7.99831 4.00086Z" fill="#7A7A7A"/>
<path d="M0.727096 2.01959L2.3849 3.6774L2.71575 4.00824C1.51602 4.94621 0.567144 6.19321 0 7.6365C1.25791 10.8285 4.36264 13.0898 7.99819 13.0898C9.12522 13.0898 10.2013 12.8717 11.1866 12.4754L11.4956 12.7844L13.6151 14.9076L14.5422 13.9841L1.65416 1.09253L0.727096 2.01959ZM4.74802 6.03687L5.8714 7.16025C5.83868 7.31659 5.81687 7.4729 5.81687 7.6365C5.81687 8.83987 6.79482 9.81782 7.99819 9.81782C8.16179 9.81782 8.31813 9.79601 8.47082 9.76329L9.5942 10.8867C9.11067 11.1266 8.57263 11.272 7.99819 11.272C5.99138 11.272 4.36264 9.64331 4.36264 7.6365C4.36264 7.06209 4.50808 6.52402 4.74802 6.03687Z" fill="#7A7A7A"/>
</g>
<defs>
<clipPath id="clip0_106_31">
<rect width="16" height="16" fill="white"/>
</clipPath>
</defs>
</svg>
