<svg width="40" height="40" viewBox="0 0 40 40" fill="none" xmlns="http://www.w3.org/2000/svg">
<rect x="1" y="1" width="38" height="38" rx="19" stroke="#333333" stroke-width="2"/>
<path d="M15.3319 28.1769C15.3319 27.8416 15.3319 27.5063 15.3319 27.171C15.3343 27.1573 15.3338 27.1432 15.3305 27.1297C15.3272 27.1162 15.3211 27.1035 15.3126 27.0924C15.3042 27.0813 15.2935 27.0721 15.2813 27.0652C15.269 27.0584 15.2555 27.0541 15.2416 27.0526C14.4028 26.8165 13.6287 26.396 12.9769 25.8222C12.5019 25.3941 12.1065 24.8868 11.8085 24.3232C11.3886 23.5092 11.1091 22.6313 10.9817 21.7258C10.8238 20.59 10.7689 19.4425 10.8178 18.297C10.8285 17.7629 10.8561 17.235 10.9174 16.7009C11.015 15.6861 11.2734 14.6928 11.683 13.7576C12.1887 12.6077 13.1062 11.6841 14.2585 11.1647C15.0435 10.8088 15.8693 10.549 16.7177 10.391C17.5497 10.2348 18.392 10.139 19.2381 10.1042C20.0007 10.0775 20.7642 10.0887 21.5258 10.1376C22.6157 10.1832 23.6957 10.3621 24.7414 10.6701C25.5166 10.8916 26.2541 11.2265 26.9295 11.6639C27.5875 12.1115 28.1198 12.7177 28.476 13.4253C28.8949 14.2519 29.1796 15.1387 29.3198 16.0531C29.4108 16.596 29.4706 17.1435 29.4989 17.6932C29.5387 18.3744 29.5341 19.0586 29.5081 19.7368C29.4821 20.415 29.4239 21.0734 29.3397 21.738C29.2332 22.7354 28.9238 23.701 28.4301 24.5766C27.7875 25.6842 26.7581 26.5207 25.5361 26.9282C24.7004 27.2182 23.8376 27.4245 22.9605 27.5442C22.3189 27.6322 21.6758 27.6959 21.0296 27.7217C20.5351 27.7445 20.0405 27.7384 19.5459 27.7308C19.2657 27.7308 18.987 27.7035 18.7083 27.6792C18.6809 27.6741 18.6527 27.6772 18.627 27.688C18.6014 27.6988 18.5796 27.7168 18.5643 27.7399C18.0009 28.4105 17.4159 29.0629 16.8264 29.7122C16.719 29.8307 16.5947 29.9329 16.4574 30.0157C16.3672 30.0743 16.2645 30.111 16.1573 30.123C16.0502 30.135 15.9417 30.1218 15.8407 30.0846C15.7397 30.0474 15.6489 29.9872 15.5756 29.9088C15.5024 29.8304 15.4488 29.736 15.4192 29.6334C15.3608 29.4509 15.3319 29.2604 15.3334 29.069C15.3319 28.7686 15.3319 28.4727 15.3319 28.1769ZM16.0133 29.4498L16.0853 29.383L17.3639 27.9766C17.8559 27.4355 18.3474 26.8938 18.8384 26.3517C18.8626 26.3186 18.8951 26.2925 18.9328 26.276C18.9705 26.2594 19.0119 26.2531 19.0528 26.2576C19.2197 26.2743 19.3866 26.2804 19.5551 26.2819C20.1369 26.2819 20.7188 26.2819 21.3007 26.2409C21.8289 26.2 22.3557 26.1363 22.8794 26.0543C23.4432 25.9571 24.0014 25.83 24.5515 25.6735C25.7765 25.3473 26.7243 24.6494 27.32 23.5191C27.6716 22.8242 27.8922 22.0715 27.9707 21.298C28.0638 20.5689 28.1195 19.8357 28.1376 19.1011C28.1648 18.1783 28.1012 17.255 27.9478 16.3444C27.8414 15.6846 27.65 15.0411 27.3781 14.4297C27.0321 13.6711 26.5421 13.043 25.7872 12.6394C24.6296 12.0204 23.377 11.7443 22.0862 11.6032C21.7202 11.5638 21.3543 11.5425 20.9868 11.5289C20.2343 11.4904 19.4802 11.4945 18.7282 11.541C18.1874 11.5808 17.6494 11.6527 17.1173 11.7564C16.3348 11.8978 15.5778 12.1534 14.871 12.515C14.4613 12.7202 14.0895 12.9926 13.7716 13.3207C13.2563 13.8913 12.8783 14.5703 12.666 15.3066C12.4142 16.1642 12.2768 17.0506 12.2572 17.9435C12.2079 18.8363 12.2192 19.7315 12.2909 20.6228C12.3355 21.1533 12.4251 21.6791 12.5588 22.1946C12.7578 22.998 13.1437 23.7441 13.6858 24.3733C14.2711 25.0152 15.0275 25.4801 15.8678 25.7145C15.9735 25.7463 16.021 25.7828 16.021 25.9011C16.0118 26.338 16.021 26.775 16.021 27.2119L16.0133 29.4498Z" fill="#333333"/>
<path d="M14.9417 15.8984C14.9309 15.5661 15.1132 15.3249 15.3337 15.108C15.6245 14.8319 15.9449 14.5882 16.2892 14.3812C16.4461 14.2853 16.6328 14.2487 16.8148 14.2783C16.9968 14.3078 17.162 14.4015 17.2799 14.542C17.6964 14.9759 18.0692 15.449 18.3931 15.9545C18.5534 16.182 18.6745 16.4342 18.7514 16.701C18.7821 16.8051 18.7841 16.9155 18.7572 17.0206C18.7302 17.1257 18.6754 17.2218 18.5983 17.2988C18.4216 17.4706 18.2333 17.6302 18.0348 17.7767C17.9347 17.8557 17.8603 17.9621 17.8208 18.0827C17.7814 18.2033 17.7785 18.3327 17.8127 18.4549C17.9354 19.0285 18.2133 19.5582 18.6166 19.9872C19.1068 20.5801 19.7383 21.0426 20.4541 21.3329C20.63 21.4225 20.8316 21.4498 21.0253 21.4103C21.1314 21.3816 21.2257 21.3206 21.2948 21.2358C21.402 21.1008 21.5183 20.9703 21.6148 20.8262C21.7399 20.6464 21.931 20.5222 22.1472 20.4799C22.3635 20.4377 22.5878 20.4808 22.7724 20.6001C23.2915 20.8985 23.7815 21.2439 24.2363 21.6318C24.3435 21.7229 24.4552 21.8108 24.5624 21.9034C24.6893 21.9992 24.7808 22.1336 24.8232 22.286C24.8655 22.4384 24.8562 22.6003 24.7967 22.7469C24.7021 22.9935 24.5642 23.2216 24.3894 23.4206C24.1722 23.7197 23.8955 23.9717 23.5763 24.161C23.4237 24.2497 23.2523 24.3019 23.0758 24.3132C22.8992 24.3245 22.7224 24.2947 22.5596 24.2262C21.3207 23.732 20.1631 23.0575 19.125 22.225C18.1096 21.3968 17.2223 20.4256 16.4913 19.3424C15.8762 18.4457 15.3868 17.4703 15.0366 16.4431C14.9993 16.3188 14.9686 16.1927 14.9447 16.0653C14.9379 16.0099 14.9369 15.954 14.9417 15.8984Z" fill="#333333"/>
<path d="M20.2283 14.2842C21.2649 14.3032 22.2618 14.682 23.0453 15.3546C23.8288 16.0273 24.3492 16.951 24.5158 17.9649C24.5829 18.3335 24.6187 18.707 24.623 19.0815C24.623 19.1695 24.6 19.2332 24.5051 19.2423C24.4101 19.2514 24.3856 19.171 24.3856 19.0906C24.3999 18.333 24.2429 17.5819 23.9263 16.8922C23.6596 16.3255 23.2646 15.8274 22.7719 15.4366C22.2793 15.0458 21.7023 14.773 21.0858 14.6392C20.7599 14.5644 20.4266 14.5258 20.092 14.5239C20.0595 14.5244 20.027 14.5204 19.9956 14.5118C19.9688 14.5043 19.9461 14.4868 19.9321 14.463C19.9181 14.4393 19.914 14.411 19.9205 14.3843C19.9207 14.3716 19.9235 14.3591 19.9286 14.3475C19.9337 14.3359 19.9412 14.3254 19.9504 14.3166C19.9597 14.3079 19.9706 14.301 19.9826 14.2965C19.9945 14.292 20.0073 14.2898 20.0201 14.2902C20.089 14.2811 20.1594 14.2842 20.2283 14.2842Z" fill="#333333"/>
<path d="M23.1843 18.3987C23.1792 17.9772 23.0744 17.5627 22.8784 17.1886C22.6824 16.8145 22.4007 16.491 22.0558 16.2443C21.6532 15.9641 21.1853 15.7902 20.6961 15.7391C20.6134 15.7284 20.5307 15.7239 20.4465 15.7148C20.3622 15.7057 20.3117 15.6708 20.3194 15.5858C20.327 15.5009 20.3806 15.4705 20.4725 15.4766C21.8292 15.5585 22.9837 16.3186 23.339 17.7341C23.4039 18.0071 23.4363 18.2866 23.4354 18.5671C23.4354 18.5929 23.4354 18.6187 23.4354 18.6429C23.4354 18.7188 23.3864 18.7689 23.3114 18.7673C23.2948 18.7668 23.2784 18.7629 23.2633 18.7558C23.2483 18.7488 23.2348 18.7388 23.2238 18.7265C23.2128 18.7141 23.2044 18.6997 23.1992 18.684C23.194 18.6683 23.192 18.6518 23.1935 18.6353C23.1812 18.564 23.1843 18.4912 23.1843 18.3987Z" fill="#333333"/>
<path d="M20.8073 16.7085C21.5514 16.7586 22.0705 17.1196 22.2129 17.904C22.2302 18.0045 22.2425 18.1058 22.2497 18.2075C22.2497 18.2894 22.2313 18.3592 22.141 18.3592C22.0506 18.3592 22.02 18.2985 22.0169 18.2075C22.0161 17.9068 21.9226 17.6135 21.749 17.3669C21.5665 17.1436 21.3045 16.9981 21.017 16.9603C20.9528 16.9484 20.8878 16.9403 20.8226 16.9361C20.7154 16.9361 20.6557 16.883 20.6694 16.801C20.6832 16.7191 20.7475 16.7039 20.8073 16.7085Z" fill="#333333"/>
</svg>
